<svg id="Capa_2" data-name="Capa 2" xmlns="http://www.w3.org/2000/svg" viewBox="0 0 710.51 314"><defs><style>.cls-1{fill:#42210b;fill-rule:evenodd;}.cls-2,.cls-4{font-size:76.08px;font-family:ArialRoundedMTBold, Arial Rounded MT Bold;}.cls-2{fill:#253783;}.cls-3{letter-spacing:-0.05em;}.cls-4{fill:#5a1210;}</style></defs><path class="cls-1" d="M718.51,38.14c0-8.41-2.41-14.92-7.17-19.29-4.44-4.13-10.08-5.52-14.76-5.93A9.91,9.91,0,0,0,689.33,10c-4.92,0-8.91,3.1-8.91,6.88s4,6.92,8.91,6.92a9.74,9.74,0,0,0,7.41-3.1c3.39.36,7.3,1.39,10.16,4.09,3.15,2.88,4.68,7.24,4.68,13.35,0,13-2.42,32.81-9.23,49.4a75.26,75.26,0,0,1-3.23,7,5.56,5.56,0,0,0-3.83,2.61c-7,11.33-16,17.08-26.72,17.08-10.24-.4-18.83-6.15-25.56-17.08a5.34,5.34,0,0,0-3.83-2.56c-1.13-2.2-2.22-4.49-3.23-7-6.81-16.59-9.23-36.41-9.23-49.4,0-6.12,1.53-10.48,4.64-13.36,2.9-2.74,6.77-3.77,10.2-4.13A9.62,9.62,0,0,0,649,23.8c4.92,0,8.91-3.06,8.91-6.88s-4-6.87-8.91-6.87A9.81,9.81,0,0,0,641.68,13c-4.64.36-10.28,1.79-14.72,5.88-4.76,4.41-7.17,10.88-7.17,19.34,0,13.84,3,40.54,13.54,60.54A6.84,6.84,0,0,0,634,104c7.45,12.09,17.17,19.46,28.42,21.66v46.76c.16,7.59-1.49,14.78-11.45,14.2H579.67l-12.61-58.75a5.71,5.71,0,0,0-1.9-3.33,5.19,5.19,0,0,0-3.39-1.26h-.08a4.86,4.86,0,0,0-3.38,1.4,6.34,6.34,0,0,0-1.82,3.46l-10.28,58.48H530.65l-15.4-120.2a6.34,6.34,0,0,0-1.81-3.73,5,5,0,0,0-7.1,0,6.38,6.38,0,0,0-1.81,3.68L484.09,219.79l-2.18-27.6a6.21,6.21,0,0,0-1.73-3.91,5.15,5.15,0,0,0-3.67-1.62H470v-.12H210a5,5,0,0,0-3.55,1.48,5.93,5.93,0,0,0-1.81,3.68l-10.84,84.43-21.73-163a6.13,6.13,0,0,0-1.82-3.69,4.89,4.89,0,0,0-3.5-1.48h-.21a5.05,5.05,0,0,0-3.5,1.66,6.22,6.22,0,0,0-1.7,3.87l-5.76,73H143.25a5,5,0,0,0-3.5,1.48,6.26,6.26,0,0,0-1.86,3.65l-6.21,43.69L123.82,194a5.85,5.85,0,0,0-1.89-3.41,5,5,0,0,0-3.39-1.35H63c-2.5-14.21-13.75-24.95-27.25-24.95C20.46,164.33,8,178.22,8,195.3s12.46,31,27.78,31c13.5,0,24.75-10.69,27.25-24.9h51.12l13,68.24a6.22,6.22,0,0,0,1.93,3.41,5.37,5.37,0,0,0,3.47,1.35h0a5.16,5.16,0,0,0,3.43-1.48,6.23,6.23,0,0,0,1.77-3.6l10.12-70.71h12.66a5.11,5.11,0,0,0,3.67-1.57A6.36,6.36,0,0,0,166,193.1l2.18-27.65,20.44,153.42a6.39,6.39,0,0,0,1.85,3.69,5.06,5.06,0,0,0,3.51,1.44,5,5,0,0,0,3.54-1.48,6.13,6.13,0,0,0,1.82-3.69l15.36-119.91H470v-.17h1.58l5.77,73.05a6.33,6.33,0,0,0,1.65,3.82,5.16,5.16,0,0,0,3.55,1.66h.16a5.19,5.19,0,0,0,3.55-1.43,6.32,6.32,0,0,0,1.81-3.69l21.73-163,10.8,84.42h0a6.37,6.37,0,0,0,1.78,3.73,5.27,5.27,0,0,0,3.55,1.48h24.75a5.15,5.15,0,0,0,3.42-1.39,6.13,6.13,0,0,0,1.86-3.51l6.33-36.14,7.82,36.41a6.08,6.08,0,0,0,1.93,3.33,5.11,5.11,0,0,0,3.35,1.3H659c6.21,0,14.27-7.24,14.27-14.52V125.61a48.6,48.6,0,0,0,31-21.57,6.86,6.86,0,0,0,.69-5.31C715.49,78.73,718.51,52,718.51,38.14ZM35.78,217.24c-10.85,0-19.68-9.8-19.68-21.94s8.83-21.93,19.68-21.93,19.67,9.84,19.67,21.93S46.66,217.24,35.78,217.24Z" transform="translate(-8 -10)"/><text class="cls-2" transform="translate(237.13 252.6) scale(0.82 1)">O<tspan class="cls-3" x="60.25" y="0">R</tspan><tspan x="111.18" y="0">TIZ</tspan></text><text class="cls-4" transform="translate(201.61 165.47) scale(0.82 1)">CLINICA</text></svg>